<mxfile host="app.diagrams.net" modified="2023-03-31T06:27:26.241Z" agent="Mozilla/5.0 (X11; Linux x86_64) AppleWebKit/537.36 (KHTML, like Gecko) Chrome/110.0.0.0 Safari/537.36" version="21.1.1" etag="5gHcGE_7Vz6mgfIaiC_g" type="github">
  <diagram name="Page-1" id="UW5JHnrb55G5Ga5WhegH">
    <mxGraphModel>
      <root>
        <mxCell id="0" />
        <mxCell id="1" parent="0" />
      </root>
    </mxGraphModel>
  </diagram>
</mxfile>
